# Exported from ProBuilder
# http://www.procore3d.com/probuilder
# 3/5/2019 8:53:45 AM

mtllib ./Cube.mtl
o Cube

g Cube
v 5 -4.211469 0.09634775
v 3.586332 -4.211469 0.09634775
v 5 -3.628531 0.09634775
v 3.586332 -3.628531 0.09634775
v 3.586332 -4.211469 0.09634775
v 3.586332 -4.211469 -0.9036523
v 3.586332 -3.628531 0.09634775
v 3.586332 -3.628531 -0.9036523
v 3.586332 -4.211469 -0.9036523
v 5 -4.211469 -0.9036523
v 3.586332 -3.628531 -0.9036523
v 5 -3.628531 -0.9036523
v 5 -4.211469 -0.9036523
v 5 -4.211469 0.09634775
v 5 -3.628531 -0.9036523
v 5 -3.628531 0.09634775
v 5 -3.628531 0.09634775
v 3.586332 -3.628531 0.09634775
v 5 -3.628531 -0.9036523
v 3.586332 -3.628531 -0.9036523
v 5 -4.211469 -0.9036523
v 3.586332 -4.211469 -0.9036523
v 5 -4.211469 0.09634775
v 3.586332 -4.211469 0.09634775

vn 0 0 1
vn 0 0 1
vn 0 0 1
vn 0 0 1
vn -1 0 0
vn -1 0 0
vn -1 0 0
vn -1 0 0
vn 0 0 -1
vn 0 0 -1
vn 0 0 -1
vn 0 0 -1
vn 1 0 0
vn 1 0 0
vn 1 0 0
vn 1 0 0
vn 0 1 0
vn 0 1 0
vn 0 1 0
vn 0 1 0
vn 0 -1 0
vn 0 -1 0
vn 0 -1 0
vn 0 -1 0

vt 0 -0.2914691
vt -1.413668 -0.2914691
vt 0 0.2914691
vt -1.413668 0.2914691
vt 1 -0.2914691
vt 0 -0.2914691
vt 1 0.2914691
vt 0 0.2914691
vt 1.413668 -0.2914691
vt 0 -0.2914691
vt 1.413668 0.2914691
vt 0 0.2914691
vt 0 -0.2914691
vt -1 -0.2914691
vt 0 0.2914691
vt -1 0.2914691
vt 0 1
vt 1.413668 1
vt 0 0
vt 1.413668 0
vt 0 0
vt -1.413668 0
vt 0 1
vt -1.413668 1

g Cube
usemtl ProBuilderDefault
f 3/3/3 4/4/4 2/2/2 1/1/1
f 7/7/7 8/8/8 6/6/6 5/5/5
f 11/11/11 12/12/12 10/10/10 9/9/9
f 15/15/15 16/16/16 14/14/14 13/13/13
f 19/19/19 20/20/20 18/18/18 17/17/17
f 23/23/23 24/24/24 22/22/22 21/21/21

